<?xml version="1.0" encoding="UTF-8" standalone="no"?>
<!DOCTYPE svg PUBLIC "-//W3C//DTD SVG 1.1//EN" "http://www.w3.org/Graphics/SVG/1.1/DTD/svg11.dtd">
<svg version="1.1" xmlns="http://www.w3.org/2000/svg" xmlns:xlink="http://www.w3.org/1999/xlink" preserveAspectRatio="xMidYMid meet" viewBox="307.0026832903096 299.0012276214832 83.99981651376174 37.754903030436594" width="80" height="33.75"><defs><path d="M388 304C388 306.21 386.21 308 384 308C381.79 308 380 306.21 380 304C380 301.79 381.79 300 384 300C386.21 300 388 301.79 388 304Z" id="h1qyza7Wx"></path><path d="M310 307C310 307.55 309.55 308 309 308C308.45 308 308 307.55 308 307C308 306.45 308.45 306 309 306C309.55 306 310 306.45 310 307Z" id="a1Pqhb8Jkf"></path><path d="M314 303C314 303.55 313.55 304 313 304C312.45 304 312 303.55 312 303C312 302.45 312.45 302 313 302C313.55 302 314 302.45 314 303Z" id="c3rMEfXAw"></path><path d="M321.38 321.79L324.36 328.36L326.3 328.36L321.38 318.21L321.38 321.79Z" id="b11wCOn7Pt"></path><path d="M321.38 321.79L318.39 328.36L316.45 328.36L321.38 318.21L321.38 321.79Z" id="aiLeBQhDf"></path><path d="M337.76 305.58L340.74 312.15L342.68 312.15L337.76 302L337.76 305.58Z" id="c5xekfJNN1"></path><path d="M337.76 305.58L334.77 312.15L332.83 312.15L337.76 302L337.76 305.58Z" id="cs2uhUkVJ"></path><path d="M350.97 330.02C350.97 330.65 350.97 331.89 350.97 333.76" id="a4izuAyWa7"></path><path d="" id="f3Sw97rkb0"></path><path d="M348.5 327.5C348.5 328.25 348.5 329.75 348.5 332" id="a2aKqil1Tp"></path><path d="M364.5 311.5C364.5 312.25 364.5 313.75 364.5 316" id="a2WLyJBviQ"></path></defs><g><g><use xlink:href="#h1qyza7Wx" opacity="1" fill="#000000" fill-opacity="1"></use></g><g><use xlink:href="#a1Pqhb8Jkf" opacity="1" fill="#000000" fill-opacity="1"></use></g><g><use xlink:href="#c3rMEfXAw" opacity="1" fill="#000000" fill-opacity="1"></use></g><g><use xlink:href="#b11wCOn7Pt" opacity="1" fill="#000000" fill-opacity="1"></use><g><use xlink:href="#b11wCOn7Pt" opacity="1" fill-opacity="0" stroke="#000000" stroke-width="0" stroke-opacity="1"></use></g></g><g><use xlink:href="#aiLeBQhDf" opacity="1" fill="#000000" fill-opacity="1"></use><g><use xlink:href="#aiLeBQhDf" opacity="1" fill-opacity="0" stroke="#000000" stroke-width="0" stroke-opacity="1"></use></g></g><g><use xlink:href="#c5xekfJNN1" opacity="1" fill="#000000" fill-opacity="1"></use><g><use xlink:href="#c5xekfJNN1" opacity="1" fill-opacity="0" stroke="#000000" stroke-width="0" stroke-opacity="1"></use></g></g><g><use xlink:href="#cs2uhUkVJ" opacity="1" fill="#000000" fill-opacity="1"></use><g><use xlink:href="#cs2uhUkVJ" opacity="1" fill-opacity="0" stroke="#000000" stroke-width="0" stroke-opacity="1"></use></g></g><g><g><use xlink:href="#a4izuAyWa7" opacity="1" fill-opacity="0" stroke="#000000" stroke-width="0" stroke-opacity="1"></use></g></g><g><g><use xlink:href="#f3Sw97rkb0" opacity="1" fill-opacity="0" stroke="#000000" stroke-width="0" stroke-opacity="1"></use></g></g><g><g><use xlink:href="#a2aKqil1Tp" opacity="1" fill-opacity="0" stroke="#000000" stroke-width="1" stroke-opacity="1"></use></g></g><g><g><use xlink:href="#a2WLyJBviQ" opacity="1" fill-opacity="0" stroke="#000000" stroke-width="1" stroke-opacity="1"></use></g></g></g></svg>