<?xml version="1.0" encoding="UTF-8" standalone="no"?>
<!DOCTYPE svg PUBLIC "-//W3C//DTD SVG 1.1//EN" "http://www.w3.org/Graphics/SVG/1.1/DTD/svg11.dtd">
<svg version="1.1" xmlns="http://www.w3.org/2000/svg" xmlns:xlink="http://www.w3.org/1999/xlink" preserveAspectRatio="xMidYMid meet" viewBox="0 0 640 640" width="640" height="640"><defs><path d="M376 308C373.8 308 372 306.22 372 304C372 301.8 373.8 300 376 300C378.22 300 380 301.8 380 304C380 306.22 378.22 308 376 308Z" id="b3Bjlyq7hj"></path><path d="M301 308C300.46 308 300 307.56 300 307C300 306.46 300.46 306 301 306C301.56 306 302 306.46 302 307C302 307.56 301.56 308 301 308Z" id="b3e3HRfOGm"></path><path d="M305 304C304.44 304 304 303.56 304 303C304 302.46 304.44 302 305 302C305.56 302 306 302.46 306 303C306 303.56 305.56 304 305 304Z" id="b20w6jgaxE"></path><path d="M316.36 328.36L318.3 328.36L313.38 318.22L313.38 321.8L316.36 328.36Z" id="aB30zB7Sn"></path><path d="M316.36 328.36L318.3 328.36L313.38 318.22L313.38 321.8L316.36 328.36Z" id="f2P4VAVBZ"></path><path d="M310.4 328.36L308.46 328.36L313.38 318.22L313.38 321.8L310.4 328.36Z" id="e9n782u57k"></path><path d="M310.4 328.36L308.46 328.36L313.38 318.22L313.38 321.8L310.4 328.36Z" id="b14WuwkvCA"></path><path d="M332.74 312.16L334.68 312.16L329.76 302L329.76 305.58L332.74 312.16Z" id="b1LoSxJ43p"></path><path d="M332.74 312.16L334.68 312.16L329.76 302L329.76 305.58L332.74 312.16Z" id="d1sin7hFN"></path><path d="M326.78 312.16L324.84 312.16L329.76 302L329.76 305.58L326.78 312.16Z" id="i7gMVHioW"></path><path d="M326.78 312.16L324.84 312.16L329.76 302L329.76 305.58L326.78 312.16Z" id="a1EovdbOsE"></path><path d="M342.96 330.04C342.96 330.66 342.96 331.9 342.96 333.76" id="b3ttGsvJY9"></path><path d="M341.5 325.5C341.5 326.51 341.5 328.51 341.5 331.5" id="b2Sv1slJkn"></path><path d="M357.5 309.5C357.5 310.49 357.5 312.49 357.5 315.5" id="a8J6SvAwc"></path></defs><g><g><g><use xlink:href="#b3Bjlyq7hj" opacity="1" fill="#000000" fill-opacity="1"></use><g><use xlink:href="#b3Bjlyq7hj" opacity="1" fill-opacity="0" stroke="#000000" stroke-width="1" stroke-opacity="0"></use></g></g><g><use xlink:href="#b3e3HRfOGm" opacity="1" fill="#000000" fill-opacity="1"></use><g><use xlink:href="#b3e3HRfOGm" opacity="1" fill-opacity="0" stroke="#000000" stroke-width="1" stroke-opacity="0"></use></g></g><g><use xlink:href="#b20w6jgaxE" opacity="1" fill="#000000" fill-opacity="1"></use><g><use xlink:href="#b20w6jgaxE" opacity="1" fill-opacity="0" stroke="#000000" stroke-width="1" stroke-opacity="0"></use></g></g><g><use xlink:href="#aB30zB7Sn" opacity="1" fill="#000000" fill-opacity="1"></use><g><use xlink:href="#aB30zB7Sn" opacity="1" fill-opacity="0" stroke="#000000" stroke-width="1" stroke-opacity="0"></use></g></g><g><use xlink:href="#f2P4VAVBZ" opacity="1" fill="#000000" fill-opacity="0"></use><g><use xlink:href="#f2P4VAVBZ" opacity="1" fill-opacity="0" stroke="#000000" stroke-width="0" stroke-opacity="1"></use></g></g><g><use xlink:href="#e9n782u57k" opacity="1" fill="#000000" fill-opacity="1"></use><g><use xlink:href="#e9n782u57k" opacity="1" fill-opacity="0" stroke="#000000" stroke-width="1" stroke-opacity="0"></use></g></g><g><use xlink:href="#b14WuwkvCA" opacity="1" fill="#000000" fill-opacity="0"></use><g><use xlink:href="#b14WuwkvCA" opacity="1" fill-opacity="0" stroke="#000000" stroke-width="0" stroke-opacity="1"></use></g></g><g><use xlink:href="#b1LoSxJ43p" opacity="1" fill="#000000" fill-opacity="1"></use><g><use xlink:href="#b1LoSxJ43p" opacity="1" fill-opacity="0" stroke="#000000" stroke-width="1" stroke-opacity="0"></use></g></g><g><use xlink:href="#d1sin7hFN" opacity="1" fill="#000000" fill-opacity="0"></use><g><use xlink:href="#d1sin7hFN" opacity="1" fill-opacity="0" stroke="#000000" stroke-width="0" stroke-opacity="1"></use></g></g><g><use xlink:href="#i7gMVHioW" opacity="1" fill="#000000" fill-opacity="1"></use><g><use xlink:href="#i7gMVHioW" opacity="1" fill-opacity="0" stroke="#000000" stroke-width="1" stroke-opacity="0"></use></g></g><g><use xlink:href="#a1EovdbOsE" opacity="1" fill="#000000" fill-opacity="0"></use><g><use xlink:href="#a1EovdbOsE" opacity="1" fill-opacity="0" stroke="#000000" stroke-width="0" stroke-opacity="1"></use></g></g><g><use xlink:href="#b3ttGsvJY9" opacity="1" fill="#000000" fill-opacity="0"></use><g><use xlink:href="#b3ttGsvJY9" opacity="1" fill-opacity="0" stroke="#000000" stroke-width="0" stroke-opacity="1"></use></g></g><g><use xlink:href="#b2Sv1slJkn" opacity="1" fill="#000000" fill-opacity="0"></use><g><use xlink:href="#b2Sv1slJkn" opacity="1" fill-opacity="0" stroke="#000000" stroke-width="1.5" stroke-opacity="1"></use></g></g><g><use xlink:href="#a8J6SvAwc" opacity="1" fill="#000000" fill-opacity="0"></use><g><use xlink:href="#a8J6SvAwc" opacity="1" fill-opacity="0" stroke="#000000" stroke-width="1.5" stroke-opacity="1"></use></g></g></g></g></svg>