<?xml version="1.0" encoding="UTF-8" standalone="no"?>
<!DOCTYPE svg PUBLIC "-//W3C//DTD SVG 1.1//EN" "http://www.w3.org/Graphics/SVG/1.1/DTD/svg11.dtd">
<svg version="1.1" xmlns="http://www.w3.org/2000/svg" xmlns:xlink="http://www.w3.org/1999/xlink" preserveAspectRatio="xMidYMid meet" viewBox="0 0 640 640" width="640" height="640"><defs><path d="M340 302C340 303.11 339.11 304 338 304C336.9 304 336 303.11 336 302C336 300.9 336.9 300 338 300C339.11 300 340 300.9 340 302Z" id="aTwJ2C055"></path><path d="M301 303.5C301 303.78 300.78 304 300.5 304C300.23 304 300 303.78 300 303.5C300 303.23 300.23 303 300.5 303C300.78 303 301 303.23 301 303.5Z" id="ai5WFPbVh"></path><path d="M303 301.5C303 301.78 302.78 302 302.5 302C302.22 302 302 301.78 302 301.5C302 301.23 302.22 301 302.5 301C302.78 301 303 301.23 303 301.5Z" id="a2KiRWNl9S"></path><path d="M306.69 310.9L308.18 314.18L309.15 314.18L306.69 309.11L306.69 310.9Z" id="aoc0IyarG"></path><path d="M306.69 310.9L305.2 314.18L304.23 314.18L306.69 309.11L306.69 310.9Z" id="aXnCtj0dS"></path><path d="M314.88 302.79L316.37 306.08L317.34 306.08L314.88 301L314.88 302.79Z" id="aieunimT2"></path><path d="M314.88 302.79L313.39 306.08L312.42 306.08L314.88 301L314.88 302.79Z" id="b4mZ7vNBpa"></path><path d="M321.48 315.02C321.48 315.33 321.48 315.95 321.48 316.88" id="d5WtHkngBq"></path><path d="" id="cWRQJnRfZ"></path><path d="M320.75 313.75C320.75 314.13 320.75 314.88 320.75 316" id="dIvdY6ECj"></path><path d="M328.75 305.75C328.75 306.12 328.75 306.87 328.75 308" id="bewkhtoOV"></path></defs><g><g><g><use xlink:href="#aTwJ2C055" opacity="1" fill="#000000" fill-opacity="1"></use></g><g><use xlink:href="#ai5WFPbVh" opacity="1" fill="#000000" fill-opacity="1"></use></g><g><use xlink:href="#a2KiRWNl9S" opacity="1" fill="#000000" fill-opacity="1"></use></g><g><use xlink:href="#aoc0IyarG" opacity="1" fill="#000000" fill-opacity="1"></use><g><use xlink:href="#aoc0IyarG" opacity="1" fill-opacity="0" stroke="#000000" stroke-width="0" stroke-opacity="1"></use></g></g><g><use xlink:href="#aXnCtj0dS" opacity="1" fill="#000000" fill-opacity="1"></use><g><use xlink:href="#aXnCtj0dS" opacity="1" fill-opacity="0" stroke="#000000" stroke-width="0" stroke-opacity="1"></use></g></g><g><use xlink:href="#aieunimT2" opacity="1" fill="#000000" fill-opacity="1"></use><g><use xlink:href="#aieunimT2" opacity="1" fill-opacity="0" stroke="#000000" stroke-width="0" stroke-opacity="1"></use></g></g><g><use xlink:href="#b4mZ7vNBpa" opacity="1" fill="#000000" fill-opacity="1"></use><g><use xlink:href="#b4mZ7vNBpa" opacity="1" fill-opacity="0" stroke="#000000" stroke-width="0" stroke-opacity="1"></use></g></g><g><g><use xlink:href="#d5WtHkngBq" opacity="1" fill-opacity="0" stroke="#000000" stroke-width="0" stroke-opacity="1"></use></g></g><g><g><use xlink:href="#cWRQJnRfZ" opacity="1" fill-opacity="0" stroke="#000000" stroke-width="0" stroke-opacity="1"></use></g></g><g><g><use xlink:href="#dIvdY6ECj" opacity="1" fill-opacity="0" stroke="#000000" stroke-width="1" stroke-opacity="1"></use></g></g><g><g><use xlink:href="#bewkhtoOV" opacity="1" fill-opacity="0" stroke="#000000" stroke-width="1" stroke-opacity="1"></use></g></g></g></g></svg>