<?xml version="1.0" encoding="UTF-8" standalone="no"?>
<!DOCTYPE svg PUBLIC "-//W3C//DTD SVG 1.1//EN" "http://www.w3.org/Graphics/SVG/1.1/DTD/svg11.dtd">
<svg version="1.1" xmlns="http://www.w3.org/2000/svg" xmlns:xlink="http://www.w3.org/1999/xlink" preserveAspectRatio="xMidYMid meet" viewBox="0 0 640 640" width="640" height="640"><defs><path d="M338 304C336.9 304 336 303.11 336 302C336 300.9 336.9 300 338 300C339.11 300 340 300.9 340 302C340 303.11 339.11 304 338 304Z" id="i5szllxl5V"></path><path d="M300.5 304C300.23 304 300 303.78 300 303.5C300 303.23 300.23 303 300.5 303C300.78 303 301 303.23 301 303.5C301 303.78 300.78 304 300.5 304Z" id="awTzd8yMV"></path><path d="M302.5 302C302.22 302 302 301.78 302 301.5C302 301.23 302.22 301 302.5 301C302.78 301 303 301.23 303 301.5C303 301.78 302.78 302 302.5 302Z" id="c2wEuBvBJN"></path><path d="M308.18 314.18L309.15 314.18L306.69 309.11L306.69 310.9L308.18 314.18Z" id="a6L8ULrTuT"></path><path d="M308.18 314.18L309.15 314.18L306.69 309.11L306.69 310.9L308.18 314.18Z" id="d1muS4FFhK"></path><path d="M305.2 314.18L304.23 314.18L306.69 309.11L306.69 310.9L305.2 314.18Z" id="c1JBvIroQs"></path><path d="M305.2 314.18L304.23 314.18L306.69 309.11L306.69 310.9L305.2 314.18Z" id="a2lRrAGOqw"></path><path d="M316.37 306.08L317.34 306.08L314.88 301L314.88 302.79L316.37 306.08Z" id="c3cWFdRFgL"></path><path d="M316.37 306.08L317.34 306.08L314.88 301L314.88 302.79L316.37 306.08Z" id="b5oL0fVm3T"></path><path d="M313.39 306.08L312.42 306.08L314.88 301L314.88 302.79L313.39 306.08Z" id="dNXySiUx"></path><path d="M313.39 306.08L312.42 306.08L314.88 301L314.88 302.79L313.39 306.08Z" id="ecWMtAZYb"></path><path d="M321.48 315.02C321.48 315.33 321.48 315.95 321.48 316.88" id="b9vL4kUpc"></path><path d="M320.75 312.75C320.75 313.26 320.75 314.26 320.75 315.75" id="b9Ojptl74"></path><path d="M328.75 304.75C328.75 305.24 328.75 306.24 328.75 307.75" id="a9Mo4eaX"></path></defs><g><g><g><use xlink:href="#i5szllxl5V" opacity="1" fill="#000000" fill-opacity="1"></use><g><use xlink:href="#i5szllxl5V" opacity="1" fill-opacity="0" stroke="#000000" stroke-width="1" stroke-opacity="0"></use></g></g><g><use xlink:href="#awTzd8yMV" opacity="1" fill="#000000" fill-opacity="1"></use><g><use xlink:href="#awTzd8yMV" opacity="1" fill-opacity="0" stroke="#000000" stroke-width="1" stroke-opacity="0"></use></g></g><g><use xlink:href="#c2wEuBvBJN" opacity="1" fill="#000000" fill-opacity="1"></use><g><use xlink:href="#c2wEuBvBJN" opacity="1" fill-opacity="0" stroke="#000000" stroke-width="1" stroke-opacity="0"></use></g></g><g><use xlink:href="#a6L8ULrTuT" opacity="1" fill="#000000" fill-opacity="1"></use><g><use xlink:href="#a6L8ULrTuT" opacity="1" fill-opacity="0" stroke="#000000" stroke-width="1" stroke-opacity="0"></use></g></g><g><use xlink:href="#d1muS4FFhK" opacity="1" fill="#000000" fill-opacity="0"></use><g><use xlink:href="#d1muS4FFhK" opacity="1" fill-opacity="0" stroke="#000000" stroke-width="0" stroke-opacity="1"></use></g></g><g><use xlink:href="#c1JBvIroQs" opacity="1" fill="#000000" fill-opacity="1"></use><g><use xlink:href="#c1JBvIroQs" opacity="1" fill-opacity="0" stroke="#000000" stroke-width="1" stroke-opacity="0"></use></g></g><g><use xlink:href="#a2lRrAGOqw" opacity="1" fill="#000000" fill-opacity="0"></use><g><use xlink:href="#a2lRrAGOqw" opacity="1" fill-opacity="0" stroke="#000000" stroke-width="0" stroke-opacity="1"></use></g></g><g><use xlink:href="#c3cWFdRFgL" opacity="1" fill="#000000" fill-opacity="1"></use><g><use xlink:href="#c3cWFdRFgL" opacity="1" fill-opacity="0" stroke="#000000" stroke-width="1" stroke-opacity="0"></use></g></g><g><use xlink:href="#b5oL0fVm3T" opacity="1" fill="#000000" fill-opacity="0"></use><g><use xlink:href="#b5oL0fVm3T" opacity="1" fill-opacity="0" stroke="#000000" stroke-width="0" stroke-opacity="1"></use></g></g><g><use xlink:href="#dNXySiUx" opacity="1" fill="#000000" fill-opacity="1"></use><g><use xlink:href="#dNXySiUx" opacity="1" fill-opacity="0" stroke="#000000" stroke-width="1" stroke-opacity="0"></use></g></g><g><use xlink:href="#ecWMtAZYb" opacity="1" fill="#000000" fill-opacity="0"></use><g><use xlink:href="#ecWMtAZYb" opacity="1" fill-opacity="0" stroke="#000000" stroke-width="0" stroke-opacity="1"></use></g></g><g><use xlink:href="#b9vL4kUpc" opacity="1" fill="#000000" fill-opacity="0"></use><g><use xlink:href="#b9vL4kUpc" opacity="1" fill-opacity="0" stroke="#000000" stroke-width="0" stroke-opacity="1"></use></g></g><g><use xlink:href="#b9Ojptl74" opacity="1" fill="#000000" fill-opacity="0"></use><g><use xlink:href="#b9Ojptl74" opacity="1" fill-opacity="0" stroke="#000000" stroke-width="1.5" stroke-opacity="1"></use></g></g><g><use xlink:href="#a9Mo4eaX" opacity="1" fill="#000000" fill-opacity="0"></use><g><use xlink:href="#a9Mo4eaX" opacity="1" fill-opacity="0" stroke="#000000" stroke-width="1.5" stroke-opacity="1"></use></g></g></g></g></svg>