<?xml version="1.0" encoding="UTF-8" standalone="no"?>
<!DOCTYPE svg PUBLIC "-//W3C//DTD SVG 1.1//EN" "http://www.w3.org/Graphics/SVG/1.1/DTD/svg11.dtd">
<svg version="1.1" xmlns="http://www.w3.org/2000/svg" xmlns:xlink="http://www.w3.org/1999/xlink" preserveAspectRatio="xMidYMid meet" viewBox="0 0 640 640" width="640" height="640"><defs><path d="M380 304C380 306.21 378.21 308 376 308C373.8 308 372 306.21 372 304C372 301.79 373.8 300 376 300C378.21 300 380 301.79 380 304Z" id="a7F0FgKJYG"></path><path d="M302 307C302 307.55 301.55 308 301 308C300.45 308 300 307.55 300 307C300 306.45 300.45 306 301 306C301.55 306 302 306.45 302 307Z" id="iOVR228df"></path><path d="M306 303C306 303.55 305.55 304 305 304C304.45 304 304 303.55 304 303C304 302.45 304.45 302 305 302C305.55 302 306 302.45 306 303Z" id="a6cLuMk7TF"></path><path d="M313.38 321.8L316.36 328.36L318.3 328.36L313.38 318.21L313.38 321.8Z" id="c185yG5b28"></path><path d="M313.38 321.8L310.39 328.36L308.45 328.36L313.38 318.21L313.38 321.8Z" id="dqht7ipk2"></path><path d="M329.76 305.58L332.74 312.15L334.68 312.15L329.76 302L329.76 305.58Z" id="d117qbL4IO"></path><path d="M329.76 305.58L326.77 312.15L324.83 312.15L329.76 302L329.76 305.58Z" id="bZeiNvk0D"></path><path d="M342.97 330.03C342.97 330.65 342.97 331.9 342.97 333.76" id="aWJhul1xr"></path><path d="" id="ckimNcSL3"></path><path d="M341.5 327.5C341.5 328.25 341.5 329.75 341.5 332" id="b1JiuNBbJC"></path><path d="M357.5 311.5C357.5 312.25 357.5 313.75 357.5 316" id="b5cuw2pb4Y"></path></defs><g><g><g><use xlink:href="#a7F0FgKJYG" opacity="1" fill="#000000" fill-opacity="1"></use></g><g><use xlink:href="#iOVR228df" opacity="1" fill="#000000" fill-opacity="1"></use></g><g><use xlink:href="#a6cLuMk7TF" opacity="1" fill="#000000" fill-opacity="1"></use></g><g><use xlink:href="#c185yG5b28" opacity="1" fill="#000000" fill-opacity="1"></use><g><use xlink:href="#c185yG5b28" opacity="1" fill-opacity="0" stroke="#000000" stroke-width="0" stroke-opacity="1"></use></g></g><g><use xlink:href="#dqht7ipk2" opacity="1" fill="#000000" fill-opacity="1"></use><g><use xlink:href="#dqht7ipk2" opacity="1" fill-opacity="0" stroke="#000000" stroke-width="0" stroke-opacity="1"></use></g></g><g><use xlink:href="#d117qbL4IO" opacity="1" fill="#000000" fill-opacity="1"></use><g><use xlink:href="#d117qbL4IO" opacity="1" fill-opacity="0" stroke="#000000" stroke-width="0" stroke-opacity="1"></use></g></g><g><use xlink:href="#bZeiNvk0D" opacity="1" fill="#000000" fill-opacity="1"></use><g><use xlink:href="#bZeiNvk0D" opacity="1" fill-opacity="0" stroke="#000000" stroke-width="0" stroke-opacity="1"></use></g></g><g><g><use xlink:href="#aWJhul1xr" opacity="1" fill-opacity="0" stroke="#000000" stroke-width="0" stroke-opacity="1"></use></g></g><g><g><use xlink:href="#ckimNcSL3" opacity="1" fill-opacity="0" stroke="#000000" stroke-width="0" stroke-opacity="1"></use></g></g><g><g><use xlink:href="#b1JiuNBbJC" opacity="1" fill-opacity="0" stroke="#000000" stroke-width="1" stroke-opacity="1"></use></g></g><g><g><use xlink:href="#b5cuw2pb4Y" opacity="1" fill-opacity="0" stroke="#000000" stroke-width="1" stroke-opacity="1"></use></g></g></g></g></svg>