<?xml version="1.0" encoding="UTF-8" standalone="no"?>
<!DOCTYPE svg PUBLIC "-//W3C//DTD SVG 1.1//EN" "http://www.w3.org/Graphics/SVG/1.1/DTD/svg11.dtd">
<svg version="1.1" xmlns="http://www.w3.org/2000/svg" xmlns:xlink="http://www.w3.org/1999/xlink" preserveAspectRatio="xMidYMid meet" viewBox="307.00268329030945 299.0012276214833 164 71.50999999999993" width="160" height="67.51"><defs><path d="M468 308C468 312.42 464.42 316 460 316C455.59 316 452 312.42 452 308C452 303.59 455.59 300 460 300C464.42 300 468 303.59 468 308Z" id="dCGJ89TuI"></path><path d="M312 314C312 315.11 311.11 316 310 316C308.9 316 308 315.11 308 314C308 312.9 308.9 312 310 312C311.11 312 312 312.9 312 314Z" id="b1jDlEtGU"></path><path d="M319.99 306C319.99 307.11 319.1 308 317.99 308C316.89 308 315.99 307.11 315.99 306C315.99 304.9 316.89 304 317.99 304C319.1 304 319.99 304.9 319.99 306Z" id="b1nX89EfAz"></path><path d="M334.75 343.59L340.72 356.72L344.6 356.72L334.75 336.42L334.75 343.59Z" id="ciVLsES4Q"></path><path d="M334.75 343.59L328.78 356.72L324.9 356.72L334.75 336.42L334.75 343.59Z" id="c45Pn69r1"></path><path d="M367.51 311.17L373.48 324.3L377.36 324.3L367.51 304L367.51 311.17Z" id="g1i7N97Hjz"></path><path d="M367.51 311.17L361.54 324.3L357.66 324.3L367.51 304L367.51 311.17Z" id="d4BwsV63r2"></path><path d="M393.93 360.05C393.93 361.29 393.93 363.78 393.93 367.51" id="a1vni1jsPa"></path><path d="" id="aahDby6El"></path><path d="M388.99 354.99C388.99 356.49 388.99 359.49 388.99 363.99" id="e19VsQWmGK"></path><path d="M420.99 322.99C420.99 324.49 420.99 327.49 420.99 331.99" id="a602a5sOzw"></path></defs><g><g><use xlink:href="#dCGJ89TuI" opacity="1" fill="#000000" fill-opacity="1"></use></g><g><use xlink:href="#b1jDlEtGU" opacity="1" fill="#000000" fill-opacity="1"></use></g><g><use xlink:href="#b1nX89EfAz" opacity="1" fill="#000000" fill-opacity="1"></use></g><g><use xlink:href="#ciVLsES4Q" opacity="1" fill="#000000" fill-opacity="1"></use><g><use xlink:href="#ciVLsES4Q" opacity="1" fill-opacity="0" stroke="#000000" stroke-width="0" stroke-opacity="1"></use></g></g><g><use xlink:href="#c45Pn69r1" opacity="1" fill="#000000" fill-opacity="1"></use><g><use xlink:href="#c45Pn69r1" opacity="1" fill-opacity="0" stroke="#000000" stroke-width="0" stroke-opacity="1"></use></g></g><g><use xlink:href="#g1i7N97Hjz" opacity="1" fill="#000000" fill-opacity="1"></use><g><use xlink:href="#g1i7N97Hjz" opacity="1" fill-opacity="0" stroke="#000000" stroke-width="0" stroke-opacity="1"></use></g></g><g><use xlink:href="#d4BwsV63r2" opacity="1" fill="#000000" fill-opacity="1"></use><g><use xlink:href="#d4BwsV63r2" opacity="1" fill-opacity="0" stroke="#000000" stroke-width="0" stroke-opacity="1"></use></g></g><g><g><use xlink:href="#a1vni1jsPa" opacity="1" fill-opacity="0" stroke="#000000" stroke-width="0" stroke-opacity="1"></use></g></g><g><g><use xlink:href="#aahDby6El" opacity="1" fill-opacity="0" stroke="#000000" stroke-width="0" stroke-opacity="1"></use></g></g><g><g><use xlink:href="#e19VsQWmGK" opacity="1" fill-opacity="0" stroke="#000000" stroke-width="1" stroke-opacity="1"></use></g></g><g><g><use xlink:href="#a602a5sOzw" opacity="1" fill-opacity="0" stroke="#000000" stroke-width="1" stroke-opacity="1"></use></g></g></g></svg>