<?xml version="1.0" encoding="UTF-8" standalone="no"?>
<!DOCTYPE svg PUBLIC "-//W3C//DTD SVG 1.1//EN" "http://www.w3.org/Graphics/SVG/1.1/DTD/svg11.dtd">
<svg version="1.1" xmlns="http://www.w3.org/2000/svg" xmlns:xlink="http://www.w3.org/1999/xlink" preserveAspectRatio="xMidYMid meet" viewBox="299.0026832903095 299.0012276214833 85.49999999999994 37.75000000000006" width="81.5" height="33.75"><defs><path d="M381.5 304C381.5 306.21 379.71 308 377.5 308C375.3 308 373.5 306.21 373.5 304C373.5 301.79 375.3 300 377.5 300C379.71 300 381.5 301.79 381.5 304Z" id="d1KcUUGlSM"></path><path d="M302 307C302 307.55 301.55 308 301 308C300.45 308 300 307.55 300 307C300 306.45 300.45 306 301 306C301.55 306 302 306.45 302 307Z" id="gFOWmdghl"></path><path d="M306 303C306 303.55 305.55 304 305 304C304.45 304 304 303.55 304 303C304 302.45 304.45 302 305 302C305.55 302 306 302.45 306 303Z" id="awnAUZSV9"></path><path d="M313.38 321.79L316.36 328.36L318.3 328.36L313.38 318.21L313.38 321.79Z" id="b1WE0V0iX"></path><path d="M313.38 321.79L310.39 328.36L308.45 328.36L313.38 318.21L313.38 321.79Z" id="c2qKrQGbAx"></path><path d="M329.76 305.58L332.74 312.15L334.68 312.15L329.76 302L329.76 305.58Z" id="d2bRGrhFOC"></path><path d="M329.76 305.58L326.77 312.15L324.83 312.15L329.76 302L329.76 305.58Z" id="b1Gf1HfK3p"></path><path d="M342.97 330.02C342.97 330.64 342.97 331.89 342.97 333.75" id="g643MxYzo"></path><path d="" id="b2WsXiwkqS"></path><path d="M341.5 327.49C341.5 328.24 341.5 329.74 341.5 331.99" id="c8mOV0CXda"></path><path d="M357.5 311.49C357.5 312.24 357.5 313.74 357.5 315.99" id="a2fMshLI2p"></path></defs><g><g><use xlink:href="#d1KcUUGlSM" opacity="1" fill="#000000" fill-opacity="1"></use></g><g><use xlink:href="#gFOWmdghl" opacity="1" fill="#000000" fill-opacity="1"></use></g><g><use xlink:href="#awnAUZSV9" opacity="1" fill="#000000" fill-opacity="1"></use></g><g><use xlink:href="#b1WE0V0iX" opacity="1" fill="#000000" fill-opacity="1"></use><g><use xlink:href="#b1WE0V0iX" opacity="1" fill-opacity="0" stroke="#000000" stroke-width="0" stroke-opacity="1"></use></g></g><g><use xlink:href="#c2qKrQGbAx" opacity="1" fill="#000000" fill-opacity="1"></use><g><use xlink:href="#c2qKrQGbAx" opacity="1" fill-opacity="0" stroke="#000000" stroke-width="0" stroke-opacity="1"></use></g></g><g><use xlink:href="#d2bRGrhFOC" opacity="1" fill="#000000" fill-opacity="1"></use><g><use xlink:href="#d2bRGrhFOC" opacity="1" fill-opacity="0" stroke="#000000" stroke-width="0" stroke-opacity="1"></use></g></g><g><use xlink:href="#b1Gf1HfK3p" opacity="1" fill="#000000" fill-opacity="1"></use><g><use xlink:href="#b1Gf1HfK3p" opacity="1" fill-opacity="0" stroke="#000000" stroke-width="0" stroke-opacity="1"></use></g></g><g><g><use xlink:href="#g643MxYzo" opacity="1" fill-opacity="0" stroke="#000000" stroke-width="0" stroke-opacity="1"></use></g></g><g><g><use xlink:href="#b2WsXiwkqS" opacity="1" fill-opacity="0" stroke="#000000" stroke-width="0" stroke-opacity="1"></use></g></g><g><g><use xlink:href="#c8mOV0CXda" opacity="1" fill-opacity="0" stroke="#000000" stroke-width="1" stroke-opacity="1"></use></g></g><g><g><use xlink:href="#a2fMshLI2p" opacity="1" fill-opacity="0" stroke="#000000" stroke-width="1" stroke-opacity="1"></use></g></g></g></svg>